<svg width="24" height="24" viewBox="0 0 24 24" fill="none" xmlns="http://www.w3.org/2000/svg">
<path d="M13.7964 10.3856C13.1086 9.69803 12.1758 9.31177 11.2032 9.31177C10.2305 9.31177 9.29775 9.69803 8.60987 10.3856L6.01575 12.9789C5.32786 13.6668 4.94141 14.5998 4.94141 15.5726C4.94141 16.5454 5.32786 17.4784 6.01575 18.1663C6.70364 18.8542 7.63663 19.2407 8.60945 19.2407C9.58228 19.2407 10.5153 18.8542 11.2032 18.1663L12.4998 16.8697" stroke="#3A69CE" stroke-width="1.55039" stroke-linecap="round" stroke-linejoin="round"/>
<path d="M11.2031 12.9789C11.891 13.6665 12.8238 14.0528 13.7964 14.0528C14.769 14.0528 15.7018 13.6665 16.3897 12.9789L18.9838 10.3857C19.6717 9.69776 20.0582 8.76478 20.0582 7.79195C20.0582 6.81912 19.6717 5.88614 18.9838 5.19825C18.2959 4.51036 17.3629 4.1239 16.3901 4.1239C15.4173 4.1239 14.4843 4.51036 13.7964 5.19825L12.4998 6.49489" stroke="#3A69CE" stroke-width="1.55039" stroke-linecap="round" stroke-linejoin="round"/>
</svg>
