<svg width="24" height="33" viewBox="0 0 24 33" fill="none" xmlns="http://www.w3.org/2000/svg">
<path d="M15 0.128906C15.2652 0.128906 15.5196 0.234263 15.7071 0.421799C15.8946 0.609336 16 0.86369 16 1.12891C16 1.39412 16.1054 1.64848 16.2929 1.83601C16.4804 2.02355 16.7348 2.12891 17 2.12891C17.2652 2.12891 17.5196 2.23426 17.7071 2.4218C17.8946 2.60934 18 2.86369 18 3.12891V4.12891C18 4.39412 17.8946 4.64848 17.7071 4.83601C17.5196 5.02355 17.2652 5.12891 17 5.12891H7C6.73478 5.12891 6.48043 5.02355 6.29289 4.83601C6.10536 4.64848 6 4.39412 6 4.12891V3.12891C6 2.86369 6.10536 2.60934 6.29289 2.4218C6.48043 2.23426 6.73478 2.12891 7 2.12891C7.26522 2.12891 7.51957 2.02355 7.70711 1.83601C7.89464 1.64848 8 1.39412 8 1.12891C8 0.86369 8.10536 0.609336 8.29289 0.421799C8.48043 0.234263 8.73478 0.128906 9 0.128906L15 0.128906Z" fill="#BBBBBB"/>
<path d="M2 5.12891C2 4.86369 2.10536 4.60934 2.29289 4.4218C2.48043 4.23426 2.73478 4.12891 3 4.12891H4C4.26522 4.12891 4.51957 4.02355 4.70711 3.83601C4.89464 3.64848 5 3.39412 5 3.12891C5 2.86369 4.89464 2.60934 4.70711 2.4218C4.51957 2.23426 4.26522 2.12891 4 2.12891H3C2.20435 2.12891 1.44129 2.44498 0.87868 3.00759C0.316071 3.5702 0 4.33326 0 5.12891V29.1289C0 29.9246 0.316071 30.6876 0.87868 31.2502C1.44129 31.8128 2.20435 32.1289 3 32.1289H21C21.7956 32.1289 22.5587 31.8128 23.1213 31.2502C23.6839 30.6876 24 29.9246 24 29.1289V5.12891C24 4.33326 23.6839 3.5702 23.1213 3.00759C22.5587 2.44498 21.7956 2.12891 21 2.12891H20C19.7348 2.12891 19.4804 2.23426 19.2929 2.4218C19.1054 2.60934 19 2.86369 19 3.12891C19 3.39412 19.1054 3.64848 19.2929 3.83601C19.4804 4.02355 19.7348 4.12891 20 4.12891H21C21.2652 4.12891 21.5196 4.23426 21.7071 4.4218C21.8946 4.60934 22 4.86369 22 5.12891V29.1289C22 29.3941 21.8946 29.6485 21.7071 29.836C21.5196 30.0236 21.2652 30.1289 21 30.1289H3C2.73478 30.1289 2.48043 30.0236 2.29289 29.836C2.10536 29.6485 2 29.3941 2 29.1289V5.12891Z" fill="#BBBBBB"/>
<path d="M17.7083 15.8362C17.8961 15.6484 18.0015 15.3938 18.0015 15.1282C18.0015 14.8627 17.8961 14.608 17.7083 14.4202C17.5205 14.2324 17.2658 14.127 17.0003 14.127C16.7347 14.127 16.4801 14.2324 16.2923 14.4202L11.0003 19.7142L8.70829 17.4202C8.52051 17.2324 8.26584 17.127 8.00029 17.127C7.73474 17.127 7.48006 17.2324 7.29229 17.4202C7.10451 17.608 6.99902 17.8627 6.99902 18.1282C6.99902 18.3938 7.10451 18.6484 7.29229 18.8362L10.2923 21.8362C10.3852 21.9293 10.4955 22.0032 10.617 22.0536C10.7385 22.1041 10.8688 22.13 11.0003 22.13C11.1318 22.13 11.2621 22.1041 11.3836 22.0536C11.505 22.0032 11.6154 21.9293 11.7083 21.8362L17.7083 15.8362Z" fill="#BBBBBB"/>
</svg>
