<svg width="27" height="29" viewBox="0 0 27 29" fill="none" xmlns="http://www.w3.org/2000/svg">
<path d="M21.385 9.34692L13.613 1.57626C13.5924 1.5571 13.5706 1.53928 13.5477 1.52292C13.5312 1.51019 13.5152 1.49685 13.4997 1.48292C13.4079 1.39635 13.3104 1.31616 13.2077 1.24292C13.1735 1.2209 13.1379 1.20129 13.101 1.18426L13.037 1.15226L12.9703 1.11359C12.8983 1.07226 12.825 1.02959 12.749 0.997588C12.4835 0.89154 12.2025 0.829394 11.917 0.813588C11.8906 0.811872 11.8644 0.808756 11.8383 0.804255C11.8022 0.798666 11.7656 0.795548 11.729 0.794922H3.49967C2.79243 0.794922 2.11415 1.07587 1.61406 1.57597C1.11396 2.07607 0.833008 2.75434 0.833008 3.46159V24.7949C0.833008 25.5022 1.11396 26.1804 1.61406 26.6805C2.11415 27.1806 2.79243 27.4616 3.49967 27.4616H12.5797C12.008 26.8665 11.5241 26.1931 11.1423 25.4616H3.49967C3.32286 25.4616 3.15329 25.3914 3.02827 25.2663C2.90325 25.1413 2.83301 24.9717 2.83301 24.7949V3.46159C2.83301 3.28478 2.90325 3.11521 3.02827 2.99018C3.15329 2.86516 3.32286 2.79492 3.49967 2.79492H11.4997V8.79492C11.4997 9.50217 11.7806 10.1804 12.2807 10.6805C12.7808 11.1806 13.4591 11.4616 14.1663 11.4616H20.1663V12.8963C20.8533 13.0023 21.5249 13.1913 22.1663 13.4589V11.2323C22.1662 10.5251 21.8851 9.8469 21.385 9.34692ZM13.4997 4.28959L18.6703 9.46159H14.1663C13.9895 9.46159 13.82 9.39135 13.6949 9.26633C13.5699 9.1413 13.4997 8.97173 13.4997 8.79492V4.28959ZM9.83301 21.4616H10.1663C10.1663 22.1496 10.2463 22.8189 10.3983 23.4616H9.83301C9.56779 23.4616 9.31344 23.3562 9.1259 23.1687C8.93836 22.9812 8.83301 22.7268 8.83301 22.4616C8.83301 22.1964 8.93836 21.942 9.1259 21.7545C9.31344 21.5669 9.56779 21.4616 9.83301 21.4616ZM10.3983 19.4616C10.565 18.7576 10.817 18.0883 11.1423 17.4616H9.83301C9.56779 17.4616 9.31344 17.5669 9.1259 17.7545C8.93836 17.942 8.83301 18.1964 8.83301 18.4616C8.83301 18.7268 8.93836 18.9812 9.1259 19.1687C9.31344 19.3562 9.56779 19.4616 9.83301 19.4616H10.3983ZM12.5797 15.4616C13.4038 14.6021 14.3959 13.9213 15.4943 13.4616H9.83301C9.56779 13.4616 9.31344 13.5669 9.1259 13.7545C8.93836 13.942 8.83301 14.1964 8.83301 14.4616C8.83301 14.7268 8.93836 14.9812 9.1259 15.1687C9.31344 15.3562 9.56779 15.4616 9.83301 15.4616H12.5797ZM5.83301 13.4616C5.56779 13.4616 5.31344 13.5669 5.1259 13.7545C4.93836 13.942 4.83301 14.1964 4.83301 14.4616C4.83301 14.7268 4.93836 14.9812 5.1259 15.1687C5.31344 15.3562 5.56779 15.4616 5.83301 15.4616C6.09822 15.4616 6.35258 15.3562 6.54011 15.1687C6.72765 14.9812 6.83301 14.7268 6.83301 14.4616C6.83301 14.1964 6.72765 13.942 6.54011 13.7545C6.35258 13.5669 6.09822 13.4616 5.83301 13.4616ZM4.83301 18.4616C4.83301 18.1964 4.93836 17.942 5.1259 17.7545C5.31344 17.5669 5.56779 17.4616 5.83301 17.4616C6.09822 17.4616 6.35258 17.5669 6.54011 17.7545C6.72765 17.942 6.83301 18.1964 6.83301 18.4616C6.83301 18.7268 6.72765 18.9812 6.54011 19.1687C6.35258 19.3562 6.09822 19.4616 5.83301 19.4616C5.56779 19.4616 5.31344 19.3562 5.1259 19.1687C4.93836 18.9812 4.83301 18.7268 4.83301 18.4616ZM4.83301 22.4616C4.83301 22.1964 4.93836 21.942 5.1259 21.7545C5.31344 21.5669 5.56779 21.4616 5.83301 21.4616C6.09822 21.4616 6.35258 21.5669 6.54011 21.7545C6.72765 21.942 6.83301 22.1964 6.83301 22.4616C6.83301 22.7268 6.72765 22.9812 6.54011 23.1687C6.35258 23.3562 6.09822 23.4616 5.83301 23.4616C5.56779 23.4616 5.31344 23.3562 5.1259 23.1687C4.93836 22.9812 4.83301 22.7268 4.83301 22.4616ZM26.1663 21.4616C26.1663 19.5167 25.3937 17.6514 24.0185 16.2761C22.6432 14.9009 20.7779 14.1283 18.833 14.1283C16.8881 14.1283 15.0228 14.9009 13.6476 16.2761C12.2723 17.6514 11.4997 19.5167 11.4997 21.4616C11.4997 23.4065 12.2723 25.2718 13.6476 26.647C15.0228 28.0223 16.8881 28.7949 18.833 28.7949C20.7779 28.7949 22.6432 28.0223 24.0185 26.647C25.3937 25.2718 26.1663 23.4065 26.1663 21.4616ZM18.4597 22.0189C18.3542 21.9491 18.2707 21.8508 18.219 21.7353C18.1673 21.6199 18.1495 21.4921 18.1677 21.3669L18.1663 16.1283C18.1663 15.9514 18.2366 15.7819 18.3616 15.6569C18.4866 15.5318 18.6562 15.4616 18.833 15.4616C19.0098 15.4616 19.1794 15.5318 19.3044 15.6569C19.4294 15.7819 19.4997 15.9514 19.4997 16.1283L19.501 20.7949H22.829C23.0058 20.7949 23.1754 20.8652 23.3004 20.9902C23.4254 21.1152 23.4957 21.2848 23.4957 21.4616C23.4957 21.6384 23.4254 21.808 23.3004 21.933C23.1754 22.058 23.0058 22.1283 22.829 22.1283H18.913C18.7537 22.1467 18.593 22.108 18.4597 22.0189Z" fill="white"/>
</svg>
