<svg width="24" height="24" viewBox="0 0 24 24" fill="none" xmlns="http://www.w3.org/2000/svg">
<path d="M21 6.73572C20.3381 7.02904 19.627 7.22722 18.8794 7.3168C19.6508 6.85526 20.2278 6.12885 20.503 5.27311C19.7783 5.70356 18.9851 6.00656 18.158 6.16891C17.6018 5.57504 16.8651 5.18141 16.0623 5.04914C15.2594 4.91687 14.4354 5.05336 13.7181 5.43741C13.0007 5.82146 12.4303 6.4316 12.0953 7.17308C11.7602 7.91457 11.6794 8.74592 11.8652 9.53807C10.3968 9.46434 8.96033 9.08267 7.64898 8.41785C6.33762 7.75302 5.18071 6.81988 4.25333 5.679C3.93623 6.22599 3.7539 6.86018 3.7539 7.5356C3.75354 8.14363 3.90328 8.74235 4.18981 9.27863C4.47634 9.81491 4.89082 10.2722 5.39646 10.6099C4.81005 10.5912 4.23658 10.4327 3.72377 10.1477V10.1952C3.72371 11.048 4.0187 11.8746 4.55868 12.5346C5.09865 13.1947 5.85036 13.6476 6.68625 13.8165C6.14226 13.9637 5.57192 13.9854 5.01832 13.8799C5.25416 14.6137 5.71355 15.2553 6.33219 15.7151C6.95082 16.1748 7.69772 16.4295 8.46833 16.4436C7.16018 17.4706 5.54461 18.0276 3.88153 18.0252C3.58693 18.0252 3.29258 18.008 3 17.9736C4.68813 19.059 6.65322 19.6351 8.66018 19.6328C15.454 19.6328 19.168 14.006 19.168 9.12584C19.168 8.96729 19.164 8.80716 19.1569 8.64861C19.8793 8.12617 20.5029 7.47923 20.9984 6.7381L21 6.73572V6.73572Z" fill="white"/>
</svg>
