<svg width="24" height="24" viewBox="0 0 24 24" fill="none" xmlns="http://www.w3.org/2000/svg">
<path fill-rule="evenodd" clip-rule="evenodd" d="M16.7422 14.1489C16.5112 14.0334 15.3786 13.4768 15.1678 13.3993C14.9569 13.3225 14.8034 13.2845 14.6492 13.5155C14.4957 13.745 14.0546 14.2644 13.9205 14.4179C13.7856 14.5721 13.6515 14.5907 13.4213 14.476C13.191 14.3597 12.4484 14.1171 11.5685 13.3326C10.884 12.7217 10.4213 11.9675 10.2871 11.7365C10.153 11.5062 10.2724 11.3814 10.3879 11.2667C10.4918 11.1636 10.6182 10.9977 10.7337 10.8636C10.8492 10.7287 10.8871 10.6326 10.9639 10.4783C11.0414 10.3248 11.0027 10.1907 10.9445 10.0752C10.8871 9.95972 10.4267 8.82561 10.2344 8.36437C10.0476 7.91554 9.85769 7.97678 9.71661 7.96902C9.58172 7.96282 9.42823 7.96127 9.27475 7.96127C9.12126 7.96127 8.87164 8.01864 8.66079 8.24964C8.44916 8.47988 7.85459 9.03724 7.85459 10.1714C7.85459 11.3047 8.6794 12.4 8.7949 12.5543C8.9104 12.7078 10.4189 15.0349 12.7298 16.0326C13.2802 16.2698 13.7089 16.4117 14.043 16.5171C14.5949 16.6931 15.0972 16.6682 15.4941 16.6086C15.936 16.5427 16.8569 16.0512 17.0492 15.5132C17.2406 14.9752 17.2406 14.514 17.1833 14.4179C17.1259 14.3217 16.9724 14.2644 16.7414 14.1489H16.7422ZM12.5391 19.8876H12.536C11.1635 19.8879 9.81612 19.5189 8.63521 18.8194L8.35614 18.6535L5.45537 19.4148L6.22978 16.5869L6.04761 16.2969C5.28028 15.0755 4.8742 13.6619 4.8763 12.2194C4.87785 7.99461 8.31506 4.5574 12.5422 4.5574C14.5887 4.5574 16.5127 5.35585 17.9592 6.80391C18.6727 7.51444 19.2382 8.35939 19.623 9.28987C20.0078 10.2204 20.2043 11.2179 20.2011 12.2248C20.1996 16.4496 16.7623 19.8876 12.5391 19.8876V19.8876ZM19.06 5.70391C18.2059 4.84416 17.1897 4.16246 16.0702 3.69833C14.9507 3.23419 13.7502 2.99684 12.5383 3.00003C7.45769 3.00003 3.32126 7.13569 3.31971 12.2186C3.31893 13.8434 3.74296 15.4295 4.54994 16.8272L3.24219 21.6047L8.12901 20.3225C9.48085 21.059 10.9957 21.445 12.5352 21.445H12.5391C17.6197 21.445 21.7561 17.3093 21.7577 12.2256C21.7614 11.0142 21.5249 9.81406 21.0619 8.69463C20.5989 7.5752 19.9184 6.55869 19.06 5.70391" fill="#3A69CE"/>
</svg>
