<svg width="24" height="24" viewBox="0 0 24 24" fill="none" xmlns="http://www.w3.org/2000/svg">
<path d="M15.6429 14.1423C15.4724 14.1423 15.3089 14.21 15.1883 14.3306C15.0678 14.4511 15.0001 14.6147 15.0001 14.7852C15.0001 14.9557 15.0678 15.1192 15.1883 15.2397C15.3089 15.3603 15.4724 15.428 15.6429 15.428H18.6429C18.8134 15.428 18.9769 15.3603 19.0975 15.2397C19.218 15.1192 19.2858 14.9557 19.2858 14.7852C19.2858 14.6147 19.218 14.4511 19.0975 14.3306C18.9769 14.21 18.8134 14.1423 18.6429 14.1423H15.6429ZM1.71777 7.49944C1.71777 6.64696 2.05642 5.82939 2.65922 5.2266C3.26201 4.6238 4.07958 4.28516 4.93206 4.28516H19.0715C19.924 4.28516 20.7415 4.6238 21.3443 5.2266C21.9471 5.82939 22.2858 6.64696 22.2858 7.49944V16.4994C22.2858 17.3519 21.9471 18.1695 21.3443 18.7723C20.7415 19.3751 19.924 19.7137 19.0715 19.7137H4.93292C4.08043 19.7137 3.26287 19.3751 2.66007 18.7723C2.05728 18.1695 1.71863 17.3519 1.71863 16.4994V7.49944H1.71777ZM4.93206 5.57087C4.42057 5.57087 3.93003 5.77406 3.56835 6.13574C3.20668 6.49741 3.00349 6.98795 3.00349 7.49944V8.1423H21.0001V7.49944C21.0001 6.98795 20.7969 6.49741 20.4352 6.13574C20.0735 5.77406 19.583 5.57087 19.0715 5.57087H4.93292H4.93206ZM3.00349 16.4994C3.00349 17.0109 3.20668 17.5015 3.56835 17.8631C3.93003 18.2248 4.42057 18.428 4.93206 18.428H19.0715C19.583 18.428 20.0735 18.2248 20.4352 17.8631C20.7969 17.5015 21.0001 17.0109 21.0001 16.4994V9.42801H3.00435V16.4994H3.00349Z" fill="#3A69CE"/>
</svg>
