<svg width="24" height="24" viewBox="0 0 24 24" fill="none" xmlns="http://www.w3.org/2000/svg">
<path d="M19.5 3H4.5C4.10218 3 3.72064 3.15804 3.43934 3.43934C3.15804 3.72064 3 4.10218 3 4.5V19.5C3 19.8978 3.15804 20.2794 3.43934 20.5607C3.72064 20.842 4.10218 21 4.5 21H19.5C19.8978 21 20.2794 20.842 20.5607 20.5607C20.842 20.2794 21 19.8978 21 19.5V4.5C21 4.10218 20.842 3.72064 20.5607 3.43934C20.2794 3.15804 19.8978 3 19.5 3Z" stroke="#3A69CE" stroke-width="2" stroke-linecap="round" stroke-linejoin="round"/>
<path d="M6.99902 11.5H10.999M10.499 15.5L12.999 17.5L16.999 12.5L10.499 15.5ZM6.99902 7.5H16.999H6.99902Z" stroke="#3A69CE" stroke-width="1.125" stroke-linecap="round" stroke-linejoin="round"/>
</svg>
