<svg width="20" height="20" viewBox="0 0 20 20" fill="none" xmlns="http://www.w3.org/2000/svg">
<path d="M16.667 1.66602H8.33366C7.89163 1.66602 7.46771 1.84161 7.15515 2.15417C6.84259 2.46673 6.66699 2.89065 6.66699 3.33268V4.99935H13.3337C13.7757 4.99935 14.1996 5.17494 14.5122 5.4875C14.8247 5.80006 15.0003 6.22399 15.0003 6.66602V13.3327H16.667C17.109 13.3327 17.5329 13.1571 17.8455 12.8445C18.1581 12.532 18.3337 12.108 18.3337 11.666V3.33268C18.3337 2.89065 18.1581 2.46673 17.8455 2.15417C17.5329 1.84161 17.109 1.66602 16.667 1.66602Z" fill="#3A69CE"/>
<path d="M3.33366 18.3327H11.667C12.5862 18.3327 13.3337 17.5852 13.3337 16.666V8.33268C13.3337 7.41352 12.5862 6.66602 11.667 6.66602H3.33366C2.41449 6.66602 1.66699 7.41352 1.66699 8.33268V16.666C1.66699 17.5852 2.41449 18.3327 3.33366 18.3327ZM5.00033 9.99935H10.0003V11.666H5.00033V9.99935ZM5.00033 13.3327H10.0003V14.9993H5.00033V13.3327Z" fill="#3A69CE"/>
</svg>
