<svg width="37" height="30" viewBox="0 0 37 30" fill="none" xmlns="http://www.w3.org/2000/svg">
<path d="M1.78789 0.0807285C0.946855 0.317944 0.249588 1.05834 0.0626919 1.92094C0.00518536 2.21566 -0.00919127 4.9616 0.00518536 12.4878L0.0267503 22.6592L0.228023 23.069C0.472426 23.5721 0.982796 24.0825 1.39972 24.255C1.73038 24.3844 1.73757 24.3988 1.82383 24.9595C1.93165 25.6424 2.62173 26.4547 3.28306 26.6775C3.67841 26.8141 2.94521 26.7278 19.4711 28.5968C28.8088 29.6463 32.4173 30.0273 32.7336 29.9985C33.6034 29.9122 34.3869 29.3515 34.7535 28.5608C34.9045 28.223 34.9907 27.4179 35.8605 18.1306C36.4787 11.5964 36.7878 7.94475 36.759 7.71472C36.6656 6.95995 36.0618 6.1261 35.3861 5.79544C35.1992 5.70918 34.7463 5.59417 34.3294 5.54385C33.9268 5.48634 33.4955 5.42165 33.3733 5.40008L33.1433 5.36414L33.1146 3.66051C33.0858 2.11502 33.0714 1.92094 32.9205 1.55433C32.6976 0.979267 32.2807 0.533592 31.7057 0.253248L31.224 0.0160332L16.6677 0.00165749C5.20953 -0.00553131 2.03948 0.00884628 1.78789 0.0807285ZM31.1881 1.36025C31.3678 1.4537 31.5835 1.63341 31.6697 1.76279C31.8207 1.99282 31.9501 2.62539 31.8926 2.89855C31.871 3.03513 31.4828 3.03513 16.5311 3.05669L1.19845 3.07107L1.2272 2.53913C1.24876 2.07189 1.27752 1.97126 1.4716 1.72685C1.5938 1.5759 1.80226 1.39619 1.93884 1.3315C2.16887 1.20929 3.0099 1.20211 16.5239 1.20211H30.8718L31.1881 1.36025ZM31.9069 6.1261V7.95912H16.5599H1.21282V6.1261V4.29308H16.5599H31.9069V6.1261ZM34.0778 6.62928C34.9188 6.68679 35.1632 6.81618 35.422 7.33374L35.5873 7.67159L34.6457 17.7856C33.5746 29.1862 33.7112 28.3021 33.0283 28.6543L32.6833 28.834L27.4214 28.2445C6.18714 25.8508 3.89406 25.5849 3.67841 25.4699C3.40526 25.3333 3.11054 24.9667 3.04584 24.6935L2.99552 24.4922L17.1421 24.4779L31.2959 24.4563L31.6338 24.2982C32.3742 23.9603 32.8989 23.2702 33.0499 22.4436C33.1074 22.156 33.1289 19.5539 33.1289 14.2633C33.1289 6.91682 33.1361 6.51427 33.2583 6.55021C33.323 6.56459 33.6968 6.60053 34.0778 6.62928ZM31.8926 15.7728C31.871 21.7535 31.8566 22.3933 31.7488 22.5873C31.5978 22.8677 31.3462 23.0977 31.0946 23.1912C30.9509 23.2487 26.5301 23.2702 16.5455 23.2702C2.37733 23.2702 2.19043 23.2702 1.9029 23.1265C1.73757 23.0474 1.52911 22.8677 1.42847 22.7167L1.24876 22.4508L1.2272 15.816L1.21282 9.18114H16.5599H31.9141L31.8926 15.7728Z" fill="#3A69CE"/>
<path d="M2.88963 10.553C2.53693 10.829 2.54459 11.3351 2.8973 11.6034C2.98931 11.6725 3.7484 11.6955 5.86464 11.7031C8.63262 11.7031 8.71696 11.6955 8.91632 11.5421C9.16168 11.3428 9.19235 10.898 8.96999 10.622L8.82431 10.438L5.95665 10.415C3.16567 10.392 3.08132 10.3996 2.88963 10.553Z" fill="#3A69CE"/>
<path d="M10.8245 10.4763C10.4411 10.6297 10.3645 11.2814 10.6942 11.5421C10.8935 11.6955 10.9779 11.7031 13.7458 11.7031C16.8129 11.6955 16.7745 11.7031 16.9355 11.2891C17.0352 11.013 16.9585 10.737 16.7285 10.553C16.5368 10.4073 16.4141 10.3996 13.7612 10.4073C12.243 10.4073 10.9165 10.438 10.8245 10.4763Z" fill="#3A69CE"/>
<path d="M2.98271 13.1067C2.58399 13.3061 2.50732 13.8352 2.82936 14.1572C2.97504 14.3029 3.10539 14.3105 7.50655 14.3105H12.0381L12.2221 14.1189C12.5441 13.8045 12.4291 13.2294 12.0074 13.0837C11.647 12.9611 3.23573 12.9764 2.98271 13.1067Z" fill="#3A69CE"/>
<path d="M14.097 13.1067C13.6983 13.3061 13.6216 13.8352 13.9436 14.1572C14.0816 14.2952 14.2043 14.3105 15.3314 14.3105C16.0062 14.3105 16.6273 14.2799 16.7039 14.2339C16.9263 14.1189 17.0413 13.6741 16.9186 13.4134C16.7499 13.0684 16.5352 13.0071 15.3621 13.0071C14.649 13.0071 14.2273 13.0454 14.097 13.1067Z" fill="#3A69CE"/>
<path d="M20.6289 13.0821C20.2455 13.2431 20.2225 13.4501 20.2455 16.7778L20.2685 19.8448L20.4832 20.0289L20.6979 20.2129H26.1572C30.3283 20.2052 31.6471 20.1822 31.7391 20.1132C32.0228 19.8909 32.0382 19.7528 32.0382 16.5785V13.4731L31.8541 13.2584L31.6701 13.0437L26.2338 13.0284C23.0211 13.0207 20.7362 13.0437 20.6289 13.0821ZM30.7347 16.6091V18.9094H26.1725H21.6103V16.6091V14.3089H26.1725H30.7347V16.6091Z" fill="#3A69CE"/>
</svg>
