<svg width="40" height="41" viewBox="0 0 40 41" fill="none" xmlns="http://www.w3.org/2000/svg">
<path d="M28.4086 0.217716C28.159 0.362614 17.6378 8.7506 17.5251 8.88745C17.3641 9.09674 17.4044 9.49119 17.6056 9.68438C17.7666 9.83733 17.8874 9.86148 18.4911 9.86148H19.1915V14.0072V18.1529H18.7407C18.306 18.1529 18.0001 18.2495 17.8874 18.4266C17.8552 18.4749 17.823 19.2235 17.823 20.0929C17.823 21.5982 17.831 21.6787 17.992 21.8236C18.1611 21.9685 18.4509 21.9766 28.6662 21.9766H39.1713L39.3242 21.7834C39.4611 21.6143 39.4772 21.4533 39.4772 20.0446V18.4829L39.2679 18.3219C39.1069 18.1931 38.9378 18.1529 38.5836 18.1529H38.1087V14.0072V9.86148H38.7929C39.4208 9.86148 39.5013 9.84538 39.6784 9.66023C39.8958 9.45094 39.9441 9.08869 39.7831 8.8794C39.6543 8.72645 29.0848 0.322365 28.8594 0.209667C28.6662 0.0969677 28.6098 0.105019 28.4086 0.217716ZM32.9568 4.9752C35.2349 6.79447 37.191 8.35615 37.3037 8.4608L37.5049 8.654H28.6179C23.7235 8.654 19.7469 8.6379 19.763 8.6218C19.7791 8.6057 21.7835 7.01182 24.2146 5.0879C26.6456 3.15593 28.6662 1.59425 28.7145 1.62645C28.7628 1.65865 30.6706 3.16397 32.9568 4.9752ZM22.0089 14.0072V18.1529H21.2039H20.3989V14.0072V9.86148H21.2039H22.0089V14.0072ZM26.6778 14.0072V18.1529H24.9471H23.2164V14.0072V9.86148H24.9471H26.6778V14.0072ZM29.4148 14.0072V18.1529H28.6501H27.8853V14.0072V9.86148H28.6501H29.4148V14.0072ZM34.0837 14.0072V18.1529H32.353H30.6223V14.0072V9.86148H32.353H34.0837V14.0072ZM36.9012 14.0072V18.1529H36.0962H35.2912V14.0072V9.86148H36.0962H36.9012V14.0072ZM38.2697 20.0848V20.8093H28.6501H19.0305V20.0848V19.3603H28.6501H38.2697V20.0848Z" fill="#3A69CE"/>
<path d="M27.998 3.5894C27.5311 3.72624 26.9917 4.16899 26.7261 4.62783C25.9533 6.00436 27.0159 7.71094 28.65 7.71094C29.8575 7.71094 30.743 6.80935 30.7349 5.59382C30.7349 4.16899 29.3826 3.1869 27.998 3.5894ZM29.1008 4.81298C29.2457 4.90958 29.4148 5.11887 29.4791 5.27987C29.5757 5.52942 29.5677 5.60992 29.463 5.85946C29.2055 6.4793 28.5051 6.6403 28.0382 6.18951C27.5874 5.76286 27.6921 5.02228 28.2314 4.75663C28.5856 4.58758 28.7788 4.59563 29.1008 4.81298Z" fill="#3A69CE"/>
<path d="M12.7675 1.37602C12.6387 1.46457 12.5904 1.57727 12.5904 1.81072C12.5904 2.12466 12.6226 2.15686 14.0474 3.39655L15.5044 4.66843L9.8534 4.70868L4.20238 4.74893L4.04943 4.94212C3.90453 5.11922 3.89648 5.36877 3.89648 12.7586C3.89648 20.3496 3.89648 20.3818 4.06553 20.5992C4.27483 20.8648 4.70147 20.889 4.94297 20.6475C5.10397 20.4865 5.10397 20.3818 5.10397 13.2013V5.91616H10.2961C13.1539 5.91616 15.4883 5.93226 15.4883 5.94836C15.4883 5.96446 14.8363 6.54405 14.0393 7.23634C12.6226 8.47603 12.5904 8.50822 12.5904 8.81412C12.5904 9.06367 12.6306 9.16027 12.7836 9.25686C13.1941 9.53056 13.3471 9.43396 15.4964 7.53419C16.6234 6.5521 17.5893 5.67466 17.6457 5.58612C17.9274 5.20777 17.702 4.97432 14.0232 1.78657C13.3551 1.21503 13.1136 1.13453 12.7675 1.37602Z" fill="#3A69CE"/>
<path d="M5.65959 22.6204C2.67308 24.9951 0.169569 27.0317 0.0971201 27.1444C-0.0638776 27.402 -0.0236282 27.7079 0.209819 27.9092C0.338617 28.0219 0.523764 28.0541 1.04701 28.0541H1.7232V32.1998V36.3455H1.24825C0.894059 36.3455 0.725011 36.3857 0.564014 36.5145L0.354717 36.6755V38.2291C0.354717 39.493 0.378866 39.8069 0.483515 39.9518L0.604263 40.1289H11.1738C21.3086 40.1289 21.7513 40.1209 21.8721 39.984C21.9928 39.8552 22.0089 39.6137 22.0089 38.2533C22.0089 36.3455 22.0089 36.3455 21.1637 36.3455H20.6404V32.1998V28.0541H21.3166C21.8721 28.0541 22.025 28.0219 22.2021 27.885C22.4517 27.6838 22.4839 27.2732 22.2746 27.0237C22.0975 26.8224 11.7131 18.5311 11.4797 18.4023C11.3911 18.354 11.2623 18.3137 11.1979 18.3137C11.1335 18.3137 8.6461 20.2537 5.65959 22.6204ZM15.4644 23.1114C17.8069 24.9549 19.8032 26.5487 19.9159 26.6534L20.1172 26.8466H11.2221H2.32694L2.52819 26.6534C2.74553 26.4441 11.1496 19.7627 11.1899 19.7627C11.206 19.7627 13.1299 21.268 15.4644 23.1114ZM4.54066 32.1998V36.3455H3.73567H2.93068V32.1998V28.0541H3.73567H4.54066V32.1998ZM9.20959 32.1998V36.3455H7.47887H5.74814V32.1998V28.0541H7.47887H9.20959V32.1998ZM11.9466 32.1998V36.3455H11.1818H10.4171V32.1998V28.0541H11.1818H11.9466V32.1998ZM16.6155 32.1998V36.3455H14.8848H13.154V32.1998V28.0541H14.8848H16.6155V32.1998ZM19.4329 32.1998V36.3455H18.628H17.823V32.1998V28.0541H18.628H19.4329V32.1998ZM20.8014 38.2372V38.9214H11.1818H1.5622V38.2372V37.5529H11.1818H20.8014V38.2372Z" fill="#3A69CE"/>
<path d="M10.6586 21.6861C9.82142 21.9437 9.21768 22.636 9.08888 23.4812C8.89569 24.7611 10.1676 26.033 11.4475 25.8398C12.7757 25.6386 13.5727 24.3989 13.2024 23.1109C12.8965 22.0644 11.6729 21.3802 10.6586 21.6861ZM11.5038 22.8533C11.7936 22.9741 12.1076 23.3927 12.1076 23.6503C12.1076 23.9481 11.85 24.3345 11.5682 24.4713C11.198 24.6484 10.8357 24.576 10.5298 24.2621C10.1193 23.8274 10.2803 23.1029 10.8438 22.8614C11.1658 22.7165 11.1738 22.7165 11.5038 22.8533Z" fill="#3A69CE"/>
<path d="M33.2066 23.4408C33.0778 23.5696 32.2084 24.5276 31.2746 25.5821C30.0832 26.9184 29.5761 27.5463 29.5761 27.6831C29.5761 27.7878 29.6566 27.9649 29.7451 28.0856C29.882 28.2627 29.9705 28.2949 30.204 28.2788C30.4696 28.2547 30.5904 28.15 31.4276 27.2001C31.9347 26.6205 32.5062 25.9685 32.6914 25.7511L33.0295 25.3567L33.0375 31.4505V37.5523H28.5296H24.0136L23.8204 37.7535C23.5628 38.0031 23.5548 38.3492 23.8043 38.5827L23.9895 38.7598H28.9804C33.1663 38.7598 33.9955 38.7437 34.1323 38.6471C34.2772 38.5344 34.2853 38.3492 34.3255 31.9979L34.3658 25.4694L35.6296 26.9184C36.4668 27.8763 36.9739 28.3915 37.1108 28.4237C37.4247 28.5042 37.7387 28.2386 37.7709 27.8683C37.795 27.5946 37.7065 27.4738 36.0482 25.5821C35.0902 24.4873 34.2209 23.5052 34.1082 23.4006C33.8425 23.1591 33.4964 23.1752 33.2066 23.4408Z" fill="#3A69CE"/>
</svg>
