<svg width="37" height="37" viewBox="0 0 37 37" fill="none" xmlns="http://www.w3.org/2000/svg">
<path d="M16.9585 0.224859C15.1704 0.612048 13.6568 1.86513 12.988 3.53356C12.7205 4.20938 12.5938 5.0612 12.5938 6.24388V7.27873L12.0658 7.32097C11.4182 7.37729 10.9817 7.5744 10.6579 7.95455C10.1862 8.50365 10.1932 8.39102 10.2144 13.4667C10.2355 18.0003 10.2355 18.0355 10.3904 18.3171C10.5875 18.6902 10.9395 19.0141 11.3267 19.1901C11.6294 19.3309 11.7772 19.3379 14.8325 19.3379H18.0145V18.7395V18.1411H14.9099H11.8054L11.6012 17.937L11.397 17.7328V13.3963C11.397 10.7001 11.4252 8.99644 11.4674 8.8838C11.6153 8.48957 11.4956 8.49661 18.0145 8.49661C24.5333 8.49661 24.4136 8.48957 24.5615 8.8838C24.6037 8.9894 24.6319 9.96089 24.6319 11.214V13.3541H25.2302H25.8286V11.1154C25.8286 8.61629 25.8075 8.46141 25.371 7.94751C25.2373 7.79263 24.9768 7.59552 24.7938 7.504L24.4559 7.33505L20.3094 7.31393L16.17 7.29281L16.1982 6.18756C16.2263 5.12455 16.2334 5.06824 16.4305 4.69513C17.1204 3.435 18.8522 3.3998 19.5562 4.63177C19.6829 4.85704 19.7814 5.15271 19.8096 5.41319C19.887 6.089 19.9293 6.10308 21.6329 6.10308C23.1253 6.09604 23.1887 6.089 23.3647 5.75813C23.5336 5.4343 23.3084 4.13194 22.9353 3.30125C22.3862 2.07632 21.2668 1.01332 20.0067 0.506451C19.0915 0.140382 17.8948 0.0277453 16.9585 0.224859ZM19.0282 1.45682C19.7955 1.65394 20.3657 1.97777 20.943 2.54799C21.5907 3.18861 21.9497 3.83627 22.1327 4.68105L22.182 4.91336L21.5695 4.89224L20.9571 4.87112L20.8304 4.50505C20.4784 3.49836 19.5702 2.75214 18.4791 2.56207C16.9092 2.29456 15.3605 3.40684 15.0648 5.00488C15.0225 5.23719 14.9873 5.84965 14.9873 6.36356V7.29985H14.3819H13.7765L13.8117 6.04677C13.8539 4.68105 13.9243 4.31498 14.2974 3.56876C14.6283 2.91406 15.4379 2.11856 16.1137 1.78065C17.057 1.31603 18.0567 1.20339 19.0282 1.45682Z" fill="#3A69CE"/>
<path d="M4.99363 8.56813C3.59975 8.74412 2.53674 9.60298 1.9806 10.9898C1.875 11.2503 1.86092 12.2007 1.82572 21.3101L1.79052 31.3418L1.03022 31.377C-0.053904 31.4263 -0.018705 31.377 0.00945412 33.0666C0.0305735 34.2282 0.0446531 34.4042 0.185449 34.6998C0.396643 35.1645 0.924627 35.7065 1.39629 35.9318L1.79052 36.1289H18.0172H34.244L34.6382 35.9318C35.1098 35.7065 35.6378 35.1645 35.849 34.6998C35.9898 34.3971 36.0039 34.2563 36.0039 33.0173C36.0039 31.3418 36.0602 31.4263 34.9972 31.377L34.244 31.3418L34.2088 21.3101C34.1736 10.3774 34.2017 11.2151 33.7934 10.4126C33.5611 9.95497 32.8571 9.25099 32.3714 8.99052C31.604 8.58221 31.414 8.55405 29.126 8.51885L27.0282 8.48365V9.11723V9.75785L29.1964 9.77897L31.3576 9.80009L31.7307 10.0113C32.2235 10.2788 32.6882 10.7997 32.8642 11.2855C33.012 11.6656 33.012 11.7572 33.012 21.5213V31.377H28.0912H23.1633L22.5368 31.9754L21.9032 32.5738H18.0172H14.1313L13.4977 31.9754L12.8712 31.377H7.9433H3.02248V21.5213C3.02248 11.7572 3.02248 11.6656 3.17032 11.2855C3.34631 10.7997 3.81094 10.2788 4.30373 10.0113L4.67683 9.80009L6.84509 9.77897L9.00631 9.75785V9.12427V8.49773L7.19708 8.50477C6.19743 8.51181 5.20482 8.53997 4.99363 8.56813ZM12.843 33.0736C13.1175 33.3482 13.4203 33.6157 13.5259 33.672C13.8074 33.8199 22.227 33.8199 22.5086 33.672C22.6142 33.6157 22.9169 33.3482 23.1915 33.0736L23.6772 32.5738H29.2598H34.8423V33.2778C34.8423 33.7213 34.8071 34.0733 34.7438 34.2141C34.6311 34.4886 34.3143 34.7913 34.0468 34.8899C33.7652 34.9955 2.26923 34.9955 1.98764 34.8899C1.72012 34.7913 1.40333 34.4886 1.2907 34.2141C1.22734 34.0733 1.19214 33.7213 1.19214 33.2778V32.5738H6.77469H12.3572L12.843 33.0736Z" fill="#3A69CE"/>
<path d="M17.3049 10.4343C15.9392 10.8707 15.2563 12.4195 15.8477 13.7219C16.0941 14.2569 16.3968 14.5737 16.9248 14.8412L17.3823 15.0805V15.693V16.3125H18.0159H18.6495V15.693V15.0805L19.1071 14.8412C19.6351 14.5737 19.9378 14.2569 20.1912 13.7078C20.3461 13.3839 20.3743 13.222 20.3743 12.7222C20.3743 12.0041 20.1771 11.5043 19.7055 11.0327C19.1141 10.4413 18.0863 10.1808 17.3049 10.4343ZM18.382 11.5958C18.7058 11.6874 19.1212 12.1379 19.1845 12.4688C19.3324 13.2854 18.7551 13.9542 17.9385 13.9049C16.8684 13.8345 16.432 12.5955 17.2204 11.8563C17.5443 11.5536 17.9174 11.4691 18.382 11.5958Z" fill="#3A69CE"/>
<path d="M5.23952 11.132C4.81713 11.3291 4.55666 11.5966 4.36659 12.019C4.22579 12.3288 4.21875 12.4344 4.21875 21.0722V29.8086L4.40178 29.9775L4.58482 30.1465H18.0167H31.4487L31.6317 29.9775L31.8147 29.8086V21.0722C31.8147 12.4344 31.8077 12.3288 31.6669 12.019C31.4768 11.5966 31.2163 11.3291 30.794 11.132C30.456 10.9701 30.3856 10.9631 28.7383 10.9631H27.0277V11.5614V12.1598H28.6468H30.273L30.442 12.3358L30.618 12.5048V20.7484V28.9849H18.0167H5.41551V20.7484V12.5048L5.59151 12.3358L5.76046 12.1598H7.38666H9.00581V11.5614V10.9631H7.30218C5.64783 10.9631 5.57743 10.9701 5.23952 11.132Z" fill="#3A69CE"/>
<path d="M22.9605 14.6584C22.0665 14.8556 20.9683 15.5243 20.3488 16.2494C19.9827 16.6789 19.6448 17.3054 19.4477 17.8967C19.2858 18.3825 19.2646 18.5796 19.2646 19.3399C19.2646 20.1002 19.2858 20.2973 19.4477 20.7831C20.1094 22.7964 21.9257 24.127 23.9954 24.127C24.812 24.127 25.4456 23.9791 26.1707 23.6271C27.2548 23.1062 28.2193 21.9728 28.6064 20.7831C28.7613 20.3043 28.8669 19.4244 28.8106 19.009L28.7754 18.6641L28.3389 18.7204C27.5434 18.833 27.6068 18.7767 27.6068 19.3751C27.5998 20.3607 27.2618 21.1702 26.5438 21.8742C25.7976 22.6064 25.0373 22.9302 24.0376 22.9302C22.4466 22.9302 21.102 21.9446 20.5811 20.3959C20.391 19.8397 20.4121 18.7486 20.6163 18.1854C21.3766 16.0875 23.7138 15.1583 25.7061 16.165L26.1003 16.3691L26.4382 15.8763C26.8254 15.3202 26.8535 15.3906 26.0792 15.0175C25.164 14.574 23.9743 14.4402 22.9605 14.6584Z" fill="#3A69CE"/>
<path d="M25.8995 17.8233L24.0339 19.6889L23.3511 19.006L22.6612 18.3161L22.2388 18.7385L21.8164 19.1609L22.802 20.1465C23.696 21.0405 23.8016 21.125 24.0339 21.125C24.2733 21.125 24.4211 20.9912 26.4627 18.9497L28.645 16.7674L28.2437 16.3661C28.0185 16.1408 27.8213 15.9578 27.8002 15.9578C27.7791 15.9578 26.9273 16.7955 25.8995 17.8233Z" fill="#3A69CE"/>
<path d="M10.4585 21.3183C9.93752 21.4943 9.52921 21.7688 9.1561 22.1982C7.9523 23.571 8.29724 25.7745 9.86008 26.7107C10.6274 27.1683 10.3599 27.1542 18.0192 27.1542C24.0664 27.1542 25.0097 27.1402 25.3758 27.0416C26.1713 26.8375 26.8612 26.3024 27.2202 25.6266C27.5863 24.9367 27.5863 24.9226 27.1709 24.803C26.4106 24.5777 26.3684 24.5777 26.2628 24.8734C26.115 25.2746 25.6292 25.7181 25.1927 25.8448C24.6507 26.0068 11.4088 26.0138 10.8668 25.8519C10.1346 25.6337 9.64184 24.9578 9.64184 24.1553C9.64184 23.4513 9.97975 22.8811 10.5852 22.5573C10.8668 22.4024 10.9301 22.4024 14.7457 22.3672L18.6176 22.332L18.6387 21.7477L18.6598 21.1704H14.7668C11.0357 21.1775 10.8597 21.1845 10.4585 21.3183Z" fill="#3A69CE"/>
<path d="M11.3984 24.1633V24.7617H11.9968H12.5952V24.1633V23.565H11.9968H11.3984V24.1633Z" fill="#3A69CE"/>
<path d="M13.793 24.1633V24.7617H14.3914H14.9897V24.1633V23.565H14.3914H13.793V24.1633Z" fill="#3A69CE"/>
<path d="M16.1875 24.1633V24.7617H16.7859H17.3843V24.1633V23.565H16.7859H16.1875V24.1633Z" fill="#3A69CE"/>
<path d="M18.6484 24.1633V24.7617H19.2468H19.8452V24.1633V23.565H19.2468H18.6484V24.1633Z" fill="#3A69CE"/>
</svg>
