<svg width="53" height="50" viewBox="0 0 53 50" fill="none" xmlns="http://www.w3.org/2000/svg">
<path fill-rule="evenodd" clip-rule="evenodd" d="M6.52621 1.69599C3.7856 1.69599 1.56389 3.77235 1.56389 6.33367V43.667C1.56389 46.1344 3.62558 48.1517 6.22678 48.2964L37.3866 19.1751C37.5261 19.0446 37.7155 18.9714 37.9129 18.9714C38.1103 18.9714 38.2996 19.0446 38.4392 19.1751L51.4352 31.3209V6.33367C51.4352 3.77235 49.2135 1.69599 46.4729 1.69599H6.52621ZM52.9239 32.999V6.33367C52.9239 3.00396 50.0357 0.304688 46.4729 0.304688H6.52621C2.96341 0.304688 0.0751953 3.00396 0.0751953 6.33367V43.667C0.0751953 46.9967 2.96341 49.696 6.52621 49.696H46.4729C50.0357 49.696 52.9239 46.9967 52.9239 43.667V33.0017C52.9239 33.0008 52.9239 32.9999 52.9239 32.999ZM51.4352 33.2885L37.9129 20.6508L8.32323 48.3047H46.4729C49.2135 48.3047 51.4352 46.2283 51.4352 43.667V33.2885ZM16.5129 12.3627C14.5602 12.3627 12.9772 13.8421 12.9772 15.667C12.9772 17.4919 14.5602 18.9714 16.5129 18.9714C18.4656 18.9714 20.0485 17.4919 20.0485 15.667C20.0485 13.8421 18.4656 12.3627 16.5129 12.3627ZM11.4885 15.667C11.4885 13.0737 13.738 10.9714 16.5129 10.9714C19.2878 10.9714 21.5372 13.0737 21.5372 15.667C21.5372 18.2603 19.2878 20.3627 16.5129 20.3627C13.738 20.3627 11.4885 18.2603 11.4885 15.667Z" fill="#BCBCBC"/>
</svg>
