<svg width="24" height="24" viewBox="0 0 24 24" fill="none" xmlns="http://www.w3.org/2000/svg">
<path d="M15.6429 14.1428C15.4724 14.1428 15.3089 14.2105 15.1883 14.3311C15.0678 14.4516 15.0001 14.6151 15.0001 14.7856C15.0001 14.9561 15.0678 15.1197 15.1883 15.2402C15.3089 15.3608 15.4724 15.4285 15.6429 15.4285H18.6429C18.8134 15.4285 18.9769 15.3608 19.0975 15.2402C19.218 15.1197 19.2858 14.9561 19.2858 14.7856C19.2858 14.6151 19.218 14.4516 19.0975 14.3311C18.9769 14.2105 18.8134 14.1428 18.6429 14.1428H15.6429ZM1.71777 7.49993C1.71777 6.64745 2.05642 5.82988 2.65922 5.22709C3.26201 4.62429 4.07958 4.28564 4.93206 4.28564H19.0715C19.924 4.28564 20.7415 4.62429 21.3443 5.22709C21.9471 5.82988 22.2858 6.64745 22.2858 7.49993V16.4999C22.2858 17.3524 21.9471 18.17 21.3443 18.7728C20.7415 19.3756 19.924 19.7142 19.0715 19.7142H4.93292C4.08043 19.7142 3.26287 19.3756 2.66007 18.7728C2.05728 18.17 1.71863 17.3524 1.71863 16.4999V7.49993H1.71777ZM4.93206 5.57136C4.42057 5.57136 3.93003 5.77455 3.56835 6.13622C3.20668 6.4979 3.00349 6.98844 3.00349 7.49993V8.14279H21.0001V7.49993C21.0001 6.98844 20.7969 6.4979 20.4352 6.13622C20.0735 5.77455 19.583 5.57136 19.0715 5.57136H4.93292H4.93206ZM3.00349 16.4999C3.00349 17.0114 3.20668 17.502 3.56835 17.8636C3.93003 18.2253 4.42057 18.4285 4.93206 18.4285H19.0715C19.583 18.4285 20.0735 18.2253 20.4352 17.8636C20.7969 17.502 21.0001 17.0114 21.0001 16.4999V9.4285H3.00435V16.4999H3.00349Z" fill="#3A69CE"/>
</svg>
